<svg width="64" height="64" viewBox="0 0 64 64" fill="none" xmlns="http://www.w3.org/2000/svg">
<circle opacity="0.1" cx="32" cy="32" r="32" fill="#219653"/>
<path d="M31.9997 43.6666C25.5562 43.6666 20.333 38.4435 20.333 32C20.333 25.5565 25.5562 20.3333 31.9997 20.3333C38.4432 20.3333 43.6663 25.5565 43.6663 32C43.6663 38.4435 38.4432 43.6666 31.9997 43.6666ZM27.9163 34.3333V36.6666H30.833V39H33.1663V36.6666H34.333C35.1066 36.6666 35.8484 36.3594 36.3954 35.8124C36.9424 35.2654 37.2497 34.5235 37.2497 33.75C37.2497 32.9764 36.9424 32.2346 36.3954 31.6876C35.8484 31.1406 35.1066 30.8333 34.333 30.8333H29.6663C29.5116 30.8333 29.3633 30.7719 29.2539 30.6625C29.1445 30.5531 29.083 30.4047 29.083 30.25C29.083 30.0953 29.1445 29.9469 29.2539 29.8375C29.3633 29.7281 29.5116 29.6666 29.6663 29.6666H36.083V27.3333H33.1663V25H30.833V27.3333H29.6663C28.8928 27.3333 28.1509 27.6406 27.6039 28.1876C27.057 28.7346 26.7497 29.4764 26.7497 30.25C26.7497 31.0235 27.057 31.7654 27.6039 32.3124C28.1509 32.8594 28.8928 33.1666 29.6663 33.1666H34.333C34.4877 33.1666 34.6361 33.2281 34.7455 33.3375C34.8549 33.4469 34.9163 33.5953 34.9163 33.75C34.9163 33.9047 34.8549 34.0531 34.7455 34.1625C34.6361 34.2719 34.4877 34.3333 34.333 34.3333H27.9163Z" fill="#219653"/>
</svg>
