<svg width="100" height="100" viewBox="0 0 100 100" fill="none" xmlns="http://www.w3.org/2000/svg">
<circle cx="50" cy="50" r="50" fill="#CEFCD9"/>
<path d="M55.9399 45.2457H51.875V40.918C51.875 39.8825 51.0364 39.043 50 39.043C48.9636 39.043 48.125 39.8825 48.125 40.918V47.1207C48.125 48.1561 48.9636 48.9957 50 48.9957H55.9399C56.9763 48.9957 57.8149 48.1561 57.8149 47.1207C57.8149 46.0852 56.9763 45.2457 55.9399 45.2457Z" fill="black"/>
<path d="M70.1687 31.7865C70.5349 32.1527 71.0146 32.3358 71.4944 32.3358C71.9741 32.3358 72.4539 32.1527 72.8201 31.7865C73.5525 31.0541 73.5525 29.8676 72.8201 29.1351L67.9843 24.2993C67.2518 23.5669 66.0653 23.5669 65.3329 24.2993C64.6005 25.0317 64.6005 26.2183 65.3329 26.9507L66.4256 28.0434L64.1757 30.2933C60.3418 27.0581 55.3986 25.0986 50.0015 25.0986C44.6029 25.0986 39.659 27.0585 35.8246 30.2943L33.5737 28.0434L34.6664 26.9507C35.3988 26.2183 35.3988 25.0317 34.6664 24.2993C33.934 23.5669 32.7474 23.5669 32.015 24.2993L27.1792 29.1351C26.4468 29.8676 26.4468 31.0541 27.1792 31.7865C27.5454 32.1527 28.0251 32.3358 28.5049 32.3358C28.9846 32.3358 29.4644 32.1527 29.8306 31.7865L30.9223 30.6947L33.1733 32.9457C29.9384 36.7799 27.9794 41.7234 27.9794 47.1207C27.9794 52.5179 29.9384 57.4613 33.1732 61.2954L31.1453 63.3228C30.4128 64.0543 30.4128 65.2417 31.1453 65.9741C31.5115 66.3403 31.9912 66.5234 32.4709 66.5234C32.9507 66.5234 33.4304 66.3403 33.7966 65.9741L35.8244 63.9469C39.6588 67.1828 44.6029 69.1428 50.0015 69.1428C50.3457 69.1428 50.6899 69.1409 51.0085 69.1162C52.0413 69.0366 52.8121 68.1348 52.7334 67.1021C52.6977 66.6344 52.482 66.2361 52.1756 65.9313C51.8059 65.5636 51.2969 65.3386 50.7192 65.3772C50.4922 65.3955 50.2505 65.3964 50.0015 65.3928C39.927 65.3928 31.7294 57.196 31.7294 47.1207C31.7294 37.0453 39.927 28.8486 50.0015 28.8486C60.0759 28.8486 68.2717 37.0453 68.2717 47.1207C68.2717 47.3431 68.2736 47.5674 68.2571 47.7725C68.2115 48.3437 68.4426 48.8583 68.819 49.2334C69.1232 49.5365 69.5167 49.7544 69.9783 49.7913C71.0018 49.8608 71.9137 49.1028 71.9961 48.071C72.0199 47.7707 72.0217 47.4457 72.0217 47.1207C72.0217 41.7228 70.0622 36.779 66.8269 32.9448L69.0769 30.6947L70.1687 31.7865Z" fill="black"/>
<path d="M63.6412 51.4258C62.6049 51.4258 61.7662 52.2653 61.7662 53.3008V53.341C59.2174 54.1516 57.3516 56.5311 57.3516 59.3671C57.3516 59.7939 57.3965 60.2102 57.4765 60.6136C58.0525 63.5176 60.5962 65.7135 63.6412 65.7135C65.042 65.7135 66.1827 66.8781 66.1827 68.3099C66.1827 69.7418 65.042 70.9064 63.6412 70.9064C62.2405 70.9064 61.1016 69.7418 61.1016 68.3099C61.1016 67.2745 60.2629 66.4349 59.2266 66.4349C58.1902 66.4349 57.3516 67.2745 57.3516 68.3099C57.3516 71.1459 59.2174 73.5254 61.7662 74.3361V74.3753C61.7662 75.4108 62.6049 76.2503 63.6412 76.2503C64.6776 76.2503 65.5162 75.4108 65.5162 74.3753V74.3363C68.0664 73.5257 69.9327 71.1462 69.9327 68.3099C69.9327 64.8108 67.1111 61.9635 63.6412 61.9635C62.2405 61.9635 61.1016 60.799 61.1016 59.3671C61.1016 57.9352 62.2405 56.7706 63.6412 56.7706C65.042 56.7706 66.1827 57.9352 66.1827 59.3671C66.1827 60.4025 67.0214 61.2421 68.0577 61.2421C69.0941 61.2421 69.9327 60.4025 69.9327 59.3671C69.9327 56.5308 68.0664 54.1513 65.5162 53.3407V53.3008C65.5162 53.0785 65.4608 52.8721 65.3899 52.6742C65.1305 51.9503 64.4551 51.4258 63.6412 51.4258Z" fill="black"/>
</svg>
