<svg width="100" height="100" viewBox="0 0 100 100" fill="none" xmlns="http://www.w3.org/2000/svg">
<circle cx="50" cy="50" r="50" fill="#D1E9FA"/>
<g clip-path="url(#clip0_2234_23891)">
<path d="M73.5342 72.0704H71.9717V47.1686C71.9717 46.538 71.5683 45.9784 70.97 45.7789L54.3939 40.2536V35.2548C54.3939 34.6442 54.0152 34.0976 53.4435 33.8832L30.0065 25.0944C29.0499 24.7357 28.0273 25.444 28.0273 26.466V72.0704H26.4648C25.6559 72.0704 25 72.7263 25 73.5353C25 74.3443 25.6559 75.0001 26.4648 75.0001C26.7938 75.0001 72.8994 75.0001 73.5342 75.0001C74.3432 75.0001 74.999 74.3443 74.999 73.5353C74.999 72.7263 74.3432 72.0704 73.5342 72.0704ZM39.7458 72.0704H36.8162V66.2111H39.7458V72.0704ZM45.6051 72.0704H42.6755V66.2111H45.6051V72.0704ZM51.4644 41.3093V72.0704H48.5348V64.7463C48.5348 63.9373 47.8789 63.2815 47.0699 63.2815H35.3514C34.5424 63.2815 33.8865 63.9373 33.8865 64.7463V72.0704H30.9569V28.5796L51.4644 36.2699V41.3093ZM63.1828 72.0704H60.2532V66.2111H63.1828V72.0704ZM69.0421 72.0704H66.1125V64.7463C66.1125 63.9373 65.4566 63.2815 64.6477 63.2815H58.7884C57.9794 63.2815 57.3235 63.9373 57.3235 64.7463V72.0704H54.3939V43.3416L69.0421 48.2244V72.0704Z" fill="black"/>
<path d="M38.2812 57.4219H35.3516C34.5426 57.4219 33.8867 58.0777 33.8867 58.8867C33.8867 59.6957 34.5425 60.3516 35.3516 60.3516H38.2812C39.0901 60.3516 39.746 59.6957 39.746 58.8867C39.746 58.0777 39.0901 57.4219 38.2812 57.4219Z" fill="black"/>
<path d="M47.0702 57.4219H44.1406C43.3316 57.4219 42.6758 58.0777 42.6758 58.8867C42.6758 59.6957 43.3315 60.3516 44.1406 60.3516H47.0702C47.8792 60.3516 48.5351 59.6957 48.5351 58.8867C48.5351 58.0777 47.8792 57.4219 47.0702 57.4219Z" fill="black"/>
<path d="M38.2812 51.5625H35.3516C34.5426 51.5625 33.8867 52.2184 33.8867 53.0273C33.8867 53.8363 34.5425 54.4922 35.3516 54.4922H38.2812C39.0901 54.4922 39.746 53.8363 39.746 53.0273C39.746 52.2184 39.0901 51.5625 38.2812 51.5625Z" fill="black"/>
<path d="M47.0702 51.5625H44.1406C43.3316 51.5625 42.6758 52.2184 42.6758 53.0273C42.6758 53.8363 43.3315 54.4922 44.1406 54.4922H47.0702C47.8792 54.4922 48.5351 53.8363 48.5351 53.0273C48.5351 52.2184 47.8792 51.5625 47.0702 51.5625Z" fill="black"/>
<path d="M64.6483 57.4219H58.7891C57.9801 57.4219 57.3242 58.0777 57.3242 58.8867C57.3242 59.6957 57.98 60.3516 58.7891 60.3516H64.6483C65.4573 60.3516 66.1132 59.6957 66.1132 58.8867C66.1132 58.0777 65.4573 57.4219 64.6483 57.4219Z" fill="black"/>
<path d="M64.6483 51.5625H58.7891C57.9801 51.5625 57.3242 52.2184 57.3242 53.0273C57.3242 53.8363 57.98 54.4922 58.7891 54.4922H64.6483C65.4573 54.4922 66.1132 53.8363 66.1132 53.0273C66.1132 52.2184 65.4573 51.5625 64.6483 51.5625Z" fill="black"/>
<path d="M38.2812 45.7031H35.3516C34.5426 45.7031 33.8867 46.359 33.8867 47.168C33.8867 47.977 34.5425 48.6328 35.3516 48.6328H38.2812C39.0901 48.6328 39.746 47.977 39.746 47.168C39.7459 46.359 39.0901 45.7031 38.2812 45.7031Z" fill="black"/>
<path d="M47.0702 45.7031H44.1406C43.3316 45.7031 42.6758 46.359 42.6758 47.168C42.6758 47.977 43.3315 48.6328 44.1406 48.6328H47.0702C47.8792 48.6328 48.5351 47.977 48.5351 47.168C48.5351 46.359 47.8792 45.7031 47.0702 45.7031Z" fill="black"/>
<path d="M38.2812 39.8438H35.3516C34.5426 39.8438 33.8867 40.4996 33.8867 41.3086C33.8867 42.1176 34.5425 42.7734 35.3516 42.7734H38.2812C39.0901 42.7734 39.746 42.1176 39.746 41.3086C39.7459 40.4996 39.0901 39.8438 38.2812 39.8438Z" fill="black"/>
<path d="M47.0702 39.8438H44.1406C43.3316 39.8438 42.6758 40.4996 42.6758 41.3086C42.6758 42.1176 43.3315 42.7734 44.1406 42.7734H47.0702C47.8792 42.7734 48.5351 42.1176 48.5351 41.3086C48.5351 40.4996 47.8792 39.8438 47.0702 39.8438Z" fill="black"/>
</g>
<defs>
<clipPath id="clip0_2234_23891">
<rect width="50" height="50" fill="white" transform="translate(25 25)"/>
</clipPath>
</defs>
</svg>
