<svg xmlns="http://www.w3.org/2000/svg" width="873.22" height="553" viewBox="0 0 873.22 553"><defs><style>.a{fill:#2f2e41;}.b{fill:#1155d4;}.c{fill:#9f616a;}.d{fill:#fff;}.e{fill:#f2f2f2;}.f{fill:#3f3d56;}.g{fill:#cbcbcb;}</style></defs><g transform="translate(0)"><path class="a" d="M862.142,734.423l2.363-.046a548.062,548.062,0,0,0-8.389-78.327c-10.219-55.4-27.212-91.776-50.506-108.132l-1.357,1.934C858.668,588.058,862.114,732.963,862.142,734.423Z" transform="translate(-139.144 -182.211)"/><path class="a" d="M832.056,717.787l2.363-.046c-.051-2.617-1.528-64.3-25.81-81.345l-1.357,1.934C830.555,654.69,832.045,717.158,832.056,717.787Z" transform="translate(-138.599 -166.141)"/><circle class="b" cx="11.816" cy="11.816" r="11.816" transform="translate(639.848 344.223)"/><circle class="b" cx="11.816" cy="11.816" r="11.816" transform="translate(645.699 445.842)"/><path class="a" d="M832.983,559.5c-2.221,14.184,3.567,26.871,3.567,26.871s9.388-10.311,11.609-24.495S844.592,535,844.592,535,835.2,545.311,832.983,559.5Z" transform="translate(-134.018 -184.557)"/><path class="a" d="M803.614,587.49c13.58,4.658,27.081,1.169,27.081,1.169s-8.517-11.041-22.1-15.7-27.082-1.169-27.082-1.169S790.034,582.832,803.614,587.49Z" transform="translate(-143.274 -178.103)"/><path class="a" d="M802.229,662.89a36.79,36.79,0,0,0,18.982.82,33.527,33.527,0,0,0-34.47-11.824A36.787,36.787,0,0,0,802.229,662.89Z" transform="translate(-142.325 -163.509)"/><path class="c" d="M588.852,407.023,512.67,367.409s-25.583-28.174-41.65-40.9-21.012-3.377-21.012-3.377l-6.754,11.257,16.322,22.7,44.089,37.335,78.779,30.856a12.492,12.492,0,1,0,6.409-18.258Z" transform="translate(-204.71 -223.639)"/><path class="c" d="M408.51,369.381,404,341.788,391.264,338.6s-10.107-3.113-12.47,17.246-.531,58.371-.531,58.371L352.406,496.1a12.52,12.52,0,1,0,17.442,8.378l33.886-77.523Z" transform="translate(-222.526 -220.258)"/><path class="c" d="M246.546,463.8H263.21l7.929-64.279h-24.6Z" transform="translate(44.778 72.561)"/><path class="a" d="M484.324,687.733h32.821a20.916,20.916,0,0,1,20.915,20.914v.681l-53.735,0Z" transform="translate(-197.251 -156.817)"/><path class="c" d="M92.716,463.8h16.666l7.928-64.279h-24.6Z" transform="translate(16.84 72.561)"/><path class="a" d="M330.5,687.733h32.821a20.916,20.916,0,0,1,20.915,20.914v.681l-53.735,0Z" transform="translate(-225.19 -156.817)"/><path class="a" d="M419.306,318.533l-27.641,23.6,22.685,71.787,5.118,16.03s-31.254,28.816-50.592,109.315S317.9,726.721,317.9,726.721l66.776,19.115L439,563.741l63.9,142.859,7.378,42.254,56.866-16.768L553.736,626.116,486.666,442.68l6.967-48.626s10.462-24.271-7.713-49.967l-5.7-24.145-20.422-5.03Z" transform="translate(-227.477 -224.53)"/><path class="a" d="M454.96,319.6H380.227a5.8,5.8,0,0,1-5.8-5.8V281.587a43.164,43.164,0,0,1,86.329,0V313.8A5.8,5.8,0,0,1,454.96,319.6Z" transform="translate(-217.21 -238.423)"/><circle class="c" cx="31.647" cy="31.647" r="31.647" transform="translate(166.304 61.369) rotate(-61.337)"/><path class="a" d="M467.618,283.026h-45.7l-.469-6.561-2.343,6.561h-7.036l-.929-13-4.644,13H392.885v-.644a34.183,34.183,0,0,1,34.145-34.145h6.443a34.184,34.184,0,0,1,34.145,34.145Z" transform="translate(-213.858 -236.64)"/><path class="a" d="M422.442,321.631a5.929,5.929,0,0,1-1.026-.091l-33.461-5.9v-55.3h36.835l-.912,1.063c-12.688,14.8-3.129,38.792,3.7,51.777a5.712,5.712,0,0,1-.454,6.065,5.775,5.775,0,0,1-4.679,2.391Z" transform="translate(-214.754 -234.443)"/><path class="d" d="M710.091,588.128,416.835,691.812a29.029,29.029,0,0,1-37-17.672L329.454,531.654a29.029,29.029,0,0,1,17.672-37L640.383,390.967a29.029,29.029,0,0,1,37,17.672l50.377,142.486a29.029,29.029,0,0,1-17.672,37Z" transform="translate(-225.68 -211.018)"/><path class="e" d="M719.613,526.253l.266.754A27.692,27.692,0,0,1,703,562.342l-294.723,104.2a27.689,27.689,0,0,1-35.332-16.874l-.267-.754Z" transform="translate(-217.529 -186.146)"/><path class="b" d="M395.818,509.041c-19.439,12.791-44.352,3.165-53.064-10.856l1.389-.789C360.691,487.08,385.267,492.827,395.818,509.041Z" transform="translate(-222.963 -192.326)"/><path class="f" d="M598.7,548.236c-4.758,1.682-9.042,1.6-12.734-.229-8.345-4.146-12.261-16.442-15.408-26.321-.916-2.874-1.78-5.589-2.661-7.808l-.013-.034a17.693,17.693,0,0,1,10.722-22.464l39.445-13.946c4.752-1.68,9.031-1.6,12.721.228,8.343,4.141,12.263,16.432,15.412,26.308.918,2.88,1.786,5.6,2.67,7.822a17.7,17.7,0,0,1-10.718,22.5Zm-29.163-34.989c.9,2.272,1.772,5.009,2.7,7.906,3.046,9.563,6.837,21.465,14.516,25.28,3.3,1.637,7.014,1.685,11.366.147l39.434-13.942a15.935,15.935,0,0,0,9.66-20.231c-.894-2.245-1.77-4.994-2.7-7.9-3.049-9.56-6.843-21.457-14.519-25.267-3.293-1.634-7.007-1.682-11.353-.145l-39.443,13.945a15.931,15.931,0,0,0-9.657,20.211Z" transform="translate(-182.254 -195.232)"/><path class="f" d="M387.932,513.794a39.206,39.206,0,0,1-21.551,1.185c-10.446-2.294-19.927-8.531-24.741-16.276l-.483-.776,2.168-1.233c16.8-10.463,41.986-4.791,52.859,11.914l.477.733-.73.481A36.891,36.891,0,0,1,387.932,513.794Zm-44.3-15.252c4.712,7,13.479,12.6,23.129,14.72a36.63,36.63,0,0,0,27.46-4.431c-10.635-15.384-34.2-20.487-49.978-10.636Z" transform="translate(-223.253 -192.473)"/><path class="f" d="M392.7,604.645a14.584,14.584,0,0,1-14.83-2.463,18.243,18.243,0,0,1-5.968-16.863,14.636,14.636,0,0,1,10.279-11.347l52.557-18.582a14.662,14.662,0,0,1,15.116,2.379,18.242,18.242,0,0,1,5.96,16.863c-1.038,5.423-4.7,9.419-10.281,11.331l-52.558,18.583Zm-10.193-28.926a12.917,12.917,0,0,0-8.879,9.93A16.435,16.435,0,0,0,379,600.841a12.929,12.929,0,0,0,13.372,2.053L444.96,584.3a12.949,12.949,0,0,0,9.128-10,16.433,16.433,0,0,0-5.37-15.192,12.984,12.984,0,0,0-13.382-2.067l-52.586,18.592Z" transform="translate(-217.718 -181.057)"/><path class="b" d="M597.557,503l-16.568,5.858a4.393,4.393,0,0,1-2.929-8.284l16.568-5.858A4.393,4.393,0,1,1,597.557,503Z" transform="translate(-180.758 -191.919)"/><path class="b" d="M601.523,514.218l-16.568,5.858a4.393,4.393,0,0,1-2.929-8.284l16.568-5.858a4.393,4.393,0,0,1,2.929,8.284Z" transform="translate(-180.038 -189.882)"/><path class="b" d="M605.488,525.435l-16.568,5.858a4.393,4.393,0,1,1-2.929-8.284l16.568-5.858a4.393,4.393,0,0,1,2.929,8.284Z" transform="translate(-179.318 -187.845)"/><path class="b" d="M622.094,494.325l-16.568,5.858A4.393,4.393,0,1,1,602.6,491.9l16.568-5.858a4.393,4.393,0,0,1,2.929,8.284Z" transform="translate(-176.302 -193.495)"/><path class="b" d="M626.06,505.542,609.492,511.4a4.393,4.393,0,0,1-2.929-8.284l16.568-5.858a4.393,4.393,0,0,1,2.929,8.284Z" transform="translate(-175.581 -191.458)"/><path class="b" d="M630.026,516.759l-16.568,5.858a4.393,4.393,0,1,1-2.929-8.284l16.568-5.858a4.393,4.393,0,0,1,2.929,8.284Z" transform="translate(-174.861 -189.421)"/><rect class="f" width="367.983" height="1.757" transform="matrix(0.943, -0.333, 0.333, 0.943, 115.737, 351.301)"/><path class="f" d="M710.091,588.128,416.835,691.812a29.029,29.029,0,0,1-37-17.672L329.454,531.654a29.029,29.029,0,0,1,17.672-37L640.383,390.967a29.029,29.029,0,0,1,37,17.672l50.377,142.486a29.029,29.029,0,0,1-17.672,37ZM347.712,496.307a27.269,27.269,0,0,0-16.6,34.76l50.377,142.486a27.27,27.27,0,0,0,34.76,16.6L709.506,586.471a27.269,27.269,0,0,0,16.6-34.76L675.729,409.225a27.27,27.27,0,0,0-34.76-16.6Z" transform="translate(-225.68 -211.018)"/><path class="g" d="M1113.415,706.786H242.558a1.182,1.182,0,1,1,0-2.363h870.857a1.182,1.182,0,1,1,0,2.363Z" transform="translate(-241.376 -153.786)"/></g></svg>